<svg width="60" height="60" viewBox="0 0 60 60" fill="none" xmlns="http://www.w3.org/2000/svg">
<rect width="60" height="60" rx="12" fill="white"/>
<path d="M30.1709 21.4699L35.5025 19.5311L40.4943 21.2929L35.5294 21.0009L35.4031 20.9934L35.2886 21.0469L27.7885 24.5469L27.6307 24.6206L27.5528 24.7764L24.5528 30.7764L23.9834 31.9152L25.1756 31.4682L27.8989 30.4469L19.6939 45.1474L23.469 34.9232L23.8297 33.9464L22.8419 34.2757L19.4627 35.4021L28.4489 16.7202L29.4472 14.7236L30.1509 13.3162L28.7639 14.0593L19.2213 19.1714L32.1694 8.50822L42.8273 8.99267L46.4348 11.6163L43.0894 11.0081L43.0175 10.995L42.9448 11.0031L33.9448 12.0031L33.6667 12.0339L33.5476 12.2871L29.5476 20.7871L29.0313 21.8843L30.1709 21.4699Z" stroke="black"/>
<path d="M23.9396 20.719L19.7074 21.449L18.3075 21.6904L21.3897 20.0468L25.6589 17.7702L23.9396 20.719Z" stroke="black"/>
</svg>
